<?xml version="1.0" encoding="UTF-8" standalone="no" ?>
<!DOCTYPE svg PUBLIC "-//W3C//DTD SVG 1.1//EN" "http://www.w3.org/Graphics/SVG/1.1/DTD/svg11.dtd">
<svg xmlns="http://www.w3.org/2000/svg" xmlns:xlink="http://www.w3.org/1999/xlink" version="1.1" width="500" height="500" viewBox="0 0 500 500" xml:space="preserve">
<desc>Created with Fabric.js 3.6.6</desc>
<defs>
</defs>
<g transform="matrix(1 0 0 1 54.5 292.5)"  >
<line style="stroke: rgb(0,0,0); stroke-width: 2; stroke-dasharray: none; stroke-linecap: butt; stroke-dashoffset: 0; stroke-linejoin: miter; stroke-miterlimit: 4; fill: rgb(0,0,0); fill-rule: nonzero; opacity: 1;"  x1="0" y1="0" x2="0" y2="0" />
</g>
<g transform="matrix(9.5 0 0 9.5 209 66.5)"  >
<path style="stroke: rgb(49,187,247); stroke-width: 4; stroke-dasharray: none; stroke-linecap: round; stroke-dashoffset: 0; stroke-linejoin: round; stroke-miterlimit: 4; fill: rgb(49,187,247); fill-opacity: 0; fill-rule: nonzero; opacity: 1;"  transform=" translate(-24, -13)" d="M 4 13 L 24 8 L 44 13 L 24 18 L 4 13 Z" stroke-linecap="round" />
</g>
<g transform="matrix(9.5 0 0 9.5 209 156.75)"  >
<path style="stroke: rgb(49,187,247); stroke-width: 4; stroke-dasharray: none; stroke-linecap: round; stroke-dashoffset: 0; stroke-linejoin: round; stroke-miterlimit: 4; fill: none; fill-rule: nonzero; opacity: 1;"  transform=" translate(-24, -22.5)" d="M 13 16 V 25.9706 C 13 25.9706 18 29 24 29 C 30 29 35 25.9706 35 25.9706 V 16" stroke-linecap="round" />
</g>
<g transform="matrix(5.13 0 0 9.5 50.76 182.5)"  >
<path style="stroke: rgb(49,187,247); stroke-width: 4; stroke-dasharray: none; stroke-linecap: round; stroke-dashoffset: 0; stroke-linejoin: round; stroke-miterlimit: 4; fill: none; fill-rule: nonzero; opacity: 1;"  transform=" translate(-7, -25)" d="M 7 14 V 36" stroke-linecap="round" />
</g>
<g transform="matrix(4.1 0 0 9.5 50.5 270.5)"  >
<rect style="stroke: rgb(49,187,247); stroke-width: 4; stroke-dasharray: none; stroke-linecap: round; stroke-dashoffset: 0; stroke-linejoin: round; stroke-miterlimit: 4; fill: rgb(49,187,247); fill-rule: nonzero; opacity: 1;"  x="-3" y="-3" rx="0" ry="0" width="6" height="6" />
</g>
<g transform="matrix(1 0 0 1 45 159)"  >
<path style="stroke: rgb(49,187,247); stroke-width: 1; stroke-dasharray: none; stroke-linecap: round; stroke-dashoffset: 0; stroke-linejoin: round; stroke-miterlimit: 10; fill: none; fill-rule: nonzero; opacity: 1;"  transform=" translate(-45, -159)" d="M 44.999 159 L 45.001 159" stroke-linecap="round" />
</g>
</svg>