<?xml version="1.0" encoding="UTF-8" standalone="no" ?>
<!DOCTYPE svg PUBLIC "-//W3C//DTD SVG 1.1//EN" "http://www.w3.org/Graphics/SVG/1.1/DTD/svg11.dtd">
<svg xmlns="http://www.w3.org/2000/svg" xmlns:xlink="http://www.w3.org/1999/xlink" version="1.1" width="1080" height="1080" viewBox="0 0 1080 1080" xml:space="preserve">
<desc>Created with Fabric.js 5.2.4</desc>
<defs>
</defs>
<rect x="0" y="0" width="100%" height="100%" fill="transparent"></rect>
<g transform="matrix(1 0 0 1 540 540)" id="34ccc8f3-19fc-435b-8a17-3217cc6b2da7"  >
<rect style="stroke: none; stroke-width: 1; stroke-dasharray: none; stroke-linecap: butt; stroke-dashoffset: 0; stroke-linejoin: miter; stroke-miterlimit: 4; fill: rgb(255,255,255); fill-rule: nonzero; opacity: 1; visibility: hidden;" vector-effect="non-scaling-stroke"  x="-540" y="-540" rx="0" ry="0" width="1080" height="1080" />
</g>
<g transform="matrix(0 0 0 0 0 0)" id="f160885d-1e26-4365-8766-5d5426100c6e"  >
</g>
<g transform="matrix(2.76 0 0 3.71 113.58 1048.23)"  >
<line style="stroke: rgb(0,0,0); stroke-width: 2; stroke-dasharray: none; stroke-linecap: butt; stroke-dashoffset: 0; stroke-linejoin: miter; stroke-miterlimit: 4; fill: rgb(0,0,0); fill-rule: nonzero; opacity: 1;" vector-effect="non-scaling-stroke"  x1="0" y1="0" x2="0" y2="0" />
</g>
<g transform="matrix(26.22 0 0 35.24 540 346.18)"  >
<path style="stroke: rgb(49,187,247); stroke-width: 4; stroke-dasharray: none; stroke-linecap: round; stroke-dashoffset: 0; stroke-linejoin: round; stroke-miterlimit: 4; fill: rgb(49,187,247); fill-opacity: 0; fill-rule: nonzero; opacity: 1;" vector-effect="non-scaling-stroke"  transform=" translate(-24, -13)" d="M 4 13 L 24 8 L 44 13 L 24 18 L 4 13 Z" stroke-linecap="round" />
</g>
<g transform="matrix(26.22 0 0 35.24 540 680.96)"  >
<path style="stroke: rgb(49,187,247); stroke-width: 4; stroke-dasharray: none; stroke-linecap: round; stroke-dashoffset: 0; stroke-linejoin: round; stroke-miterlimit: 4; fill: none; fill-rule: nonzero; opacity: 1;" vector-effect="non-scaling-stroke"  transform=" translate(-24, -22.5)" d="M 13 16 L 13 25.9706 C 13 25.9706 18 29 24 29 C 30 29 35 25.9706 35 25.9706 L 35 16" stroke-linecap="round" />
</g>
<g transform="matrix(14.16 0 0 18.14 103.26 588.38)"  >
<path style="stroke: rgb(49,187,247); stroke-width: 4; stroke-dasharray: none; stroke-linecap: round; stroke-dashoffset: 0; stroke-linejoin: round; stroke-miterlimit: 4; fill: none; fill-rule: nonzero; opacity: 1;" vector-effect="non-scaling-stroke"  transform=" translate(-7, -25)" d="M 7 14 L 7 36" stroke-linecap="round" />
</g>
<g transform="matrix(6.03 0 0 35.24 105.28 704.35)"  >
<rect style="stroke: rgb(49,187,247); stroke-width: 4; stroke-dasharray: none; stroke-linecap: round; stroke-dashoffset: 0; stroke-linejoin: round; stroke-miterlimit: 4; fill: rgb(49,187,247); fill-rule: nonzero; opacity: 1;" vector-effect="non-scaling-stroke"  x="-3" y="-3" rx="0" ry="0" width="6" height="6" />
</g>
<g transform="matrix(2.76 0 0 3.71 87.36 689.3)"  >
<path style="stroke: rgb(49,187,247); stroke-width: 1; stroke-dasharray: none; stroke-linecap: round; stroke-dashoffset: 0; stroke-linejoin: round; stroke-miterlimit: 10; fill: none; fill-rule: nonzero; opacity: 1;" vector-effect="non-scaling-stroke"  transform=" translate(-45, -159)" d="M 44.999 159 L 45.001 159" stroke-linecap="round" />
</g>
</svg>