<svg viewBox="0 0 500 500" xmlns="http://www.w3.org/2000/svg">
  <path d="M 5.424 155.39 L 249.321 94.415 L 493.212 155.39 L 249.321 216.361 L 5.424 155.39 Z" stroke="#31bbf7" stroke-width="4" stroke-linecap="round" stroke-linejoin="round" transform="matrix(1, 0, 0, 1, 1.4210854715202004e-14, 0)"/>
  <path d="M 116.015 181.939 L 116.015 303.534 C 116.015 303.534 176.988 340.472 250.158 340.472 C 323.324 340.472 384.297 303.534 384.297 303.534 L 384.297 181.939" stroke="#31bbf7" stroke-width="4" stroke-linecap="round" stroke-linejoin="round" transform="matrix(1, 0, 0, 1, 1.4210854715202004e-14, 0)"/>
  <path d="M 44.519 157.553 L 44.519 425.836" stroke="#31bbf7" stroke-width="4" stroke-linecap="round" stroke-linejoin="round" transform="matrix(1, 0, 0, 1, 1.4210854715202004e-14, 0)"/>
  <path d="M 42.857 401.705 L 42.857 496.14" stroke="#31bbf7" stroke-width="4" stroke-linecap="round" stroke-linejoin="round" transform="matrix(1, 0, 0, 1, 1.4210854715202004e-14, 0)"/>
  <path d="M 39.514 402.541 L 39.514 496.975" stroke="#31bbf7" stroke-width="4" stroke-linecap="round" stroke-linejoin="round" transform="matrix(1, 0, 0, 1, 1.4210854715202004e-14, 0)"/>
  <path d="M 47.873 402.541 L 47.873 496.975" stroke="#31bbf7" stroke-width="4" stroke-linecap="round" stroke-linejoin="round" transform="matrix(1, 0, 0, 1, 1.4210854715202004e-14, 0)"/>
  <path d="M 44.53 410.901 L 44.53 497.813" stroke="#31bbf7" stroke-width="4" stroke-linecap="round" stroke-linejoin="round" transform="matrix(1, 0, 0, 1, 1.4210854715202004e-14, 0)"/>
  <rect x="37.007" y="401.282" width="14.209" height="97.79" style="stroke: #31bbf7;" rx="1.263" ry="1.263" transform="matrix(1, 0, 0, 1, 1.4210854715202004e-14, 0)"/>
</svg>
