<?xml version="1.0" encoding="utf-8"?>
<!-- Uploaded to: SVG Repo, www.svgrepo.com, Generator: SVG Repo Mixer Tools -->
<svg fill="#31bbf7" height="800px" width="800px" version="1.2" baseProfile="tiny" id="Layer_1" xmlns="http://www.w3.org/2000/svg" xmlns:xlink="http://www.w3.org/1999/xlink"
	  viewBox="-25 8 203.4 242" xml:space="preserve">
<path d="M86.6,8C44.9,8,6.5,39.3-1.5,73.7c-1.8,7.7-3.8,27.7-3.8,27.7l-19.1,50.3c-0.4,0.9-0.6,1.8-0.6,2.9c0,4.1,3.3,7.4,7.4,7.4
	h12.3v25.7c0,20,16.2,36.2,36.2,36.2h14.4V250h98v-77.9c21.4-16.8,35.1-42.9,35.1-72.2C178.4,49.1,137.3,8,86.6,8z M17.3,119.7
	c-5.6,0-10.2-4.6-10.2-10.3c0-5.6,4.6-10.2,10.2-10.2c5.7,0,10.3,4.6,10.3,10.2C27.6,115.1,23,119.7,17.3,119.7z M146.6,151.6
	c0,0,3.7-42.3-46.2-42.3c-71.8-1.6-70.9-64.9-70.9-64.9C44,29,64.5,19.3,87.4,19.3c43.8,0,79.4,35.5,79.4,79.4
	C166.8,119,159.1,137.5,146.6,151.6z M110,34.8c-8.4,0-15.3,6.9-15.3,15.3v10.5H64.7v33.5h40.4V60.6h-5V50c0-5.5,4.5-10,10-10
	s10,4.5,10,10v10h5.3V50C125.3,41.6,118.5,34.8,110,34.8z M88.7,86.4h-7.6l2.1-8.5c-1.2-0.6-2.1-1.9-2.1-3.4c0-2.1,1.7-3.8,3.8-3.8
	s3.8,1.7,3.8,3.8c0,1.5-0.8,2.7-2.1,3.4L88.7,86.4z"/>
</svg>