<svg height="200px" width="200px" version="1.1" id="Capa_1" xmlns="http://www.w3.org/2000/svg" xmlns:xlink="http://www.w3.org/1999/xlink" viewBox="0 0 502.685 502.685" xml:space="preserve" fill="#31bbf7">
<g id="SVGRepo_bgCarrier" stroke-width="0"></g><g id="SVGRepo_tracerCarrier" stroke-linecap="round" stroke-linejoin="round"></g><g id="SVGRepo_iconCarrier"> <g> <g> <path style="fill:#31bbf7;" d="M383.96,261.729V118.564H232.123V17.375H0V338.09h232.123V147.296c34.837,0,104.683,0,123.104,0 c0,12.727,0,65.403,0,114.39L236.524,380.433h45.277V485.31h175.651V380.433h45.234L383.96,261.729z M33.888,51.241h62.577v37.166 H33.888V51.241z M33.888,121.648h62.577v37.21H33.888V121.648z M142.648,326.096H85.528V221.262h57.098L142.648,326.096 L142.648,326.096z M194.245,158.836H131.69v-37.188h62.555V158.836z M194.245,88.408H131.69V51.241h62.555V88.408z M396.536,476.164h-52.115v-91.611h52.115V476.164z"></path> </g> <g> </g> <g> </g> <g> </g> <g> </g> <g> </g> <g> </g> <g> </g> <g> </g> <g> </g> <g> </g> <g> </g> <g> </g> <g> </g> <g> </g> <g> </g> </g> </g></svg>